<?xml version="1.0" encoding="UTF-8" standalone="no"?>
<!DOCTYPE svg PUBLIC "-//W3C//DTD SVG 1.1//EN" "http://www.w3.org/Graphics/SVG/1.1/DTD/svg11.dtd">
<svg width="100%" height="100%" viewBox="0 0 384 384" version="1.1" xmlns="http://www.w3.org/2000/svg" xmlns:xlink="http://www.w3.org/1999/xlink" xml:space="preserve" xmlns:serif="http://www.serif.com/" style="fill-rule:evenodd;clip-rule:evenodd;stroke-linejoin:round;stroke-miterlimit:2;">
    <g transform="matrix(25.4311,0,0,18.301,-1985.71,-1950.67)">
        <path d="M78.082,115.178L78.082,106.588L81.041,106.588C81.709,106.588 82.219,106.629 82.57,106.711C83.062,106.824 83.482,107.029 83.83,107.326C84.283,107.709 84.622,108.198 84.846,108.794C85.071,109.39 85.183,110.07 85.183,110.836C85.183,111.488 85.107,112.067 84.955,112.57C84.803,113.074 84.607,113.491 84.369,113.821C84.131,114.151 83.87,114.411 83.587,114.601C83.304,114.79 82.962,114.934 82.561,115.031C82.161,115.129 81.701,115.178 81.181,115.178L78.082,115.178ZM79.219,114.164L81.053,114.164C81.619,114.164 82.063,114.111 82.386,114.006C82.708,113.901 82.965,113.752 83.156,113.561C83.426,113.291 83.636,112.929 83.786,112.474C83.936,112.019 84.012,111.467 84.012,110.818C84.012,109.92 83.864,109.23 83.569,108.747C83.274,108.265 82.916,107.942 82.494,107.777C82.189,107.66 81.699,107.602 81.023,107.602L79.219,107.602L79.219,114.164Z" style="fill-opacity:0;fill-rule:nonzero;"/>
        <path d="M86.771,115.178L86.771,106.588L92.982,106.588L92.982,107.602L87.908,107.602L87.908,110.233L92.66,110.233L92.66,111.24L87.908,111.24L87.908,114.164L93.181,114.164L93.181,115.178L86.771,115.178Z" style="fill-opacity:0;fill-rule:nonzero;"/>
        <path d="M78.105,127.57L78.105,118.981L84.316,118.981L84.316,119.994L79.242,119.994L79.242,122.625L83.994,122.625L83.994,123.633L79.242,123.633L79.242,126.557L84.515,126.557L84.515,127.57L78.105,127.57Z" style="fill-opacity:0;fill-rule:nonzero;"/>
        <path d="M86.086,127.57L86.086,118.981L89.326,118.981C89.896,118.981 90.332,119.008 90.633,119.063C91.054,119.133 91.408,119.267 91.693,119.464C91.978,119.661 92.208,119.938 92.382,120.293C92.555,120.649 92.642,121.039 92.642,121.465C92.642,122.195 92.41,122.814 91.945,123.319C91.48,123.825 90.64,124.078 89.426,124.078L87.222,124.078L87.222,127.57L86.086,127.57ZM87.222,123.065L89.443,123.065C90.178,123.065 90.699,122.928 91.008,122.654C91.316,122.381 91.47,121.996 91.47,121.5C91.47,121.141 91.38,120.833 91.198,120.577C91.016,120.321 90.777,120.152 90.48,120.07C90.289,120.02 89.935,119.994 89.42,119.994L87.222,119.994L87.222,123.065Z" style="fill-opacity:0;fill-rule:nonzero;"/>
    </g>
</svg>
